<svg xmlns="http://www.w3.org/2000/svg" width="840" height="352" viewBox="0 0 840 352" role="img" aria-labelledby="tt-t">
<title id="tt-t">A machined steel spinning top on a dark table, spinning true: 46 contributions on 6 of the last 14 days. It turns once every 0.412 seconds and leans 2.55 degrees as it precesses.</title>
<defs>
  <filter id="tt-grain" x="0" y="0" width="100%" height="100%"><feTurbulence type="fractalNoise" baseFrequency=".9" numOctaves="2" seed="7" stitchTiles="stitch"/><feColorMatrix values="0 0 0 0 1  0 0 0 0 1  0 0 0 0 1  1.6 0 0 0 -.82"/></filter>
  <pattern id="tt-gp" width="160" height="160" patternUnits="userSpaceOnUse"><rect width="160" height="160" filter="url(#tt-grain)"/>
    <animateTransform attributeName="patternTransform" type="translate" values="78 65;111 42;96 43;68 13;98 72;50 58;50 74;113 26;20 5;19 7;45 11;35 17" dur="1s" calcMode="discrete" repeatCount="indefinite"/></pattern>
  <radialGradient id="tt-vig" cx=".5" cy=".5" r=".75"><stop offset=".55" stop-color="#000" stop-opacity="0"/><stop offset="1" stop-color="#000" stop-opacity=".72"/></radialGradient>
  <linearGradient id="tt-foot" x1="0" x2="0" y1="0" y2="1"><stop offset=".62" stop-color="#000" stop-opacity="0"/><stop offset="1" stop-color="#000" stop-opacity=".7"/></linearGradient>
  <filter id="ttb1" x="-50%" y="-50%" width="200%" height="200%"><feGaussianBlur stdDeviation="0.5"/></filter><filter id="ttb2" x="-50%" y="-50%" width="200%" height="200%"><feGaussianBlur stdDeviation="1.1"/></filter><filter id="ttb3" x="-50%" y="-50%" width="200%" height="200%"><feGaussianBlur stdDeviation="1.9"/></filter><filter id="ttb4" x="-50%" y="-50%" width="200%" height="200%"><feGaussianBlur stdDeviation="3"/></filter>
  <style>
  .mark { opacity: 0; animation: turn 0.412s linear infinite; }
  @keyframes turn {
    0%   { transform: translateX(-46px) scaleX(.2); opacity: 0 }
    10%  { opacity: .55 }
    25%  { transform: translateX(-33px) scaleX(.7) }
    50%  { transform: translateX(0) scaleX(1); opacity: .75 }
    75%  { transform: translateX(33px) scaleX(.7) }
    90%  { opacity: .55 }
    100% { transform: translateX(46px) scaleX(.2); opacity: 0 }
  }
  @media (prefers-reduced-motion: reduce) { .mark { animation: none } }
</style>

  <linearGradient id="tt-steel" x1="-51" x2="51" y1="0" y2="0" gradientUnits="userSpaceOnUse">
    <stop offset="0" stop-color="#141517"/><stop offset="0.07" stop-color="#2f3134"/><stop offset="0.18" stop-color="#7d8085"/><stop offset="0.27" stop-color="#cfd2d5"/><stop offset="0.33" stop-color="#f3f4f5"/><stop offset="0.4" stop-color="#b4b7bb"/><stop offset="0.5" stop-color="#55585c"/><stop offset="0.6" stop-color="#3b3d40"/><stop offset="0.7" stop-color="#74777b"/><stop offset="0.79" stop-color="#c7c9cc"/><stop offset="0.85" stop-color="#8d9094"/><stop offset="0.93" stop-color="#3a3c3f"/><stop offset="1" stop-color="#151618"/>
  </linearGradient>
  <linearGradient id="tt-stem" x1="-5.2" x2="5.2" y1="0" y2="0" gradientUnits="userSpaceOnUse">
    <stop offset="0" stop-color="#141517"/><stop offset="0.07" stop-color="#2f3134"/><stop offset="0.18" stop-color="#7d8085"/><stop offset="0.27" stop-color="#cfd2d5"/><stop offset="0.33" stop-color="#f3f4f5"/><stop offset="0.4" stop-color="#b4b7bb"/><stop offset="0.5" stop-color="#55585c"/><stop offset="0.6" stop-color="#3b3d40"/><stop offset="0.7" stop-color="#74777b"/><stop offset="0.79" stop-color="#c7c9cc"/><stop offset="0.85" stop-color="#8d9094"/><stop offset="0.93" stop-color="#3a3c3f"/><stop offset="1" stop-color="#151618"/>
  </linearGradient>
  <radialGradient id="tt-hot"><stop offset="0" stop-color="#fff" stop-opacity=".55"/><stop offset="1" stop-color="#fff" stop-opacity="0"/></radialGradient>
  <!-- Key light from above: the crown catches it, the underside falls into shade. -->
  <linearGradient id="tt-shade" x1="0" x2="0" y1="-163" y2="0" gradientUnits="userSpaceOnUse">
    <stop offset="0" stop-color="#fff" stop-opacity=".12"/>
    <stop offset=".3" stop-color="#fff" stop-opacity=".1"/>
    <stop offset=".5" stop-color="#fff" stop-opacity="0"/>
    <stop offset=".55" stop-color="#000" stop-opacity=".05"/>
    <stop offset="1" stop-color="#000" stop-opacity=".5"/>
  </linearGradient>
  <clipPath id="tt-clip"><path d="M 0 0 C 6 -6 18 -26 30 -44 C 40 -58 48 -70 50 -79 C 51 -86 47 -95 38 -102 C 29 -108 15 -111 6.5 -112 C 5.4 -114 5 -116 5 -119 L 5 -149 C 5 -151 7.6 -152 7.6 -156 C 7.6 -161 4 -163 0 -163 C -4 -163, -7.6 -161, -7.6 -156 C -7.6 -152, -5 -151, -5 -149 L -5 -119 C -5 -116, -5.4 -114, -6.5 -112 C -15 -111, -29 -108, -38 -102 C -47 -95, -51 -86, -50 -79 C -48 -70, -40 -58, -30 -44 C -18 -26, -6 -6, 0 0 Z"/></clipPath>
  <filter id="tt-blur" x="-50%" y="-50%" width="200%" height="200%"><feGaussianBlur stdDeviation="7.8 0.2"/></filter>
  <filter id="tt-soft" x="-50%" y="-200%" width="200%" height="500%"><feGaussianBlur stdDeviation="6 2.2"/></filter>

  <linearGradient id="tt-wall" x1="0" x2="0" y1="0" y2="1"><stop offset="0" stop-color="#060606"/><stop offset="1" stop-color="#15110e"/></linearGradient>
  <linearGradient id="tt-table" x1="0" x2="0" y1="0" y2="1"><stop offset="0" stop-color="#1c140e"/><stop offset=".5" stop-color="#140e0a"/><stop offset="1" stop-color="#0c0907"/></linearGradient>
  <clipPath id="tt-tableclip"><rect y="176" width="840" height="176"/></clipPath>
  <radialGradient id="tt-pool"><stop offset="0" stop-color="#ffe2b8" stop-opacity=".2"/><stop offset=".45" stop-color="#e3b072" stop-opacity=".07"/><stop offset="1" stop-color="#e3b072" stop-opacity="0"/></radialGradient>
  <linearGradient id="tt-beam" x1="0" x2="0" y1="0" y2="1"><stop offset="0" stop-color="#ffe2b8" stop-opacity=".16"/><stop offset="1" stop-color="#ffe2b8" stop-opacity="0"/></linearGradient>
  <linearGradient id="tt-rf" x1="0" x2="0" y1="298" y2="360" gradientUnits="userSpaceOnUse"><stop offset="0" stop-color="#fff"/><stop offset="1" stop-color="#fff" stop-opacity="0"/></linearGradient>
  <mask id="tt-refmask" maskUnits="userSpaceOnUse" x="0" y="0" width="840" height="352"><rect y="298" width="840" height="54" fill="url(#tt-rf)"/></mask>
  <linearGradient id="tt-warm" x1="-51" x2="51" y1="0" y2="0" gradientUnits="userSpaceOnUse"><stop offset="0" stop-color="#e3b072" stop-opacity=".28"/><stop offset=".45" stop-color="#e3b072" stop-opacity=".06"/><stop offset="1" stop-color="#000" stop-opacity=".25"/></linearGradient>
  <filter id="tt-bokeh" x="-50%" y="-50%" width="200%" height="200%"><feGaussianBlur stdDeviation="7"/></filter>
  <filter id="tt-wide" x="-50%" y="-50%" width="200%" height="200%"><feGaussianBlur stdDeviation="16"/></filter>
  <filter id="tt-sh" x="-50%" y="-50%" width="200%" height="200%"><feGaussianBlur stdDeviation="3.2"/></filter>
</defs>
<rect width="840" height="352" fill="#0b0b0c"/>
<g><animateTransform attributeName="transform" type="translate" values="0.09 0.09;0.34 -0.33;-0.03 -0.19;-0.15 0.17;0.16 -0.06;-0.05 -0.21;0.2 0.27;-0.28 0.11;-0.23 -0.18" dur="1.5s" calcMode="discrete" repeatCount="indefinite"/>

<rect width="840" height="176" fill="url(#tt-wall)"/>
<g filter="url(#tt-bokeh)"><circle cx="96" cy="64" r="26" fill="#ffe2b8" opacity="0.12"/><circle cx="150" cy="112" r="12" fill="#ffe2b8" opacity="0.08"/><circle cx="688" cy="58" r="34" fill="#ffe2b8" opacity="0.07"/><circle cx="758" cy="118" r="15" fill="#ffe2b8" opacity="0.1"/><circle cx="600" cy="30" r="18" fill="#ffe2b8" opacity="0.05"/><circle cx="262" cy="40" r="9" fill="#ffe2b8" opacity="0.06"/></g>
<rect y="176" width="840" height="176" fill="url(#tt-table)"/>
<g clip-path="url(#tt-tableclip)"><line x1="-907.8" y1="352" x2="420" y2="116" stroke="#000" stroke-opacity="0.2" stroke-width="0.6"/><line x1="-834.9" y1="352" x2="420" y2="116" stroke="#6b4a33" stroke-opacity="0.06" stroke-width="1.6"/><line x1="-794.6" y1="352" x2="420" y2="116" stroke="#000" stroke-opacity="0.29" stroke-width="0.9"/><line x1="-728.2" y1="352" x2="420" y2="116" stroke="#000" stroke-opacity="0.23" stroke-width="1.5"/><line x1="-668.6" y1="352" x2="420" y2="116" stroke="#000" stroke-opacity="0.27" stroke-width="1.1"/><line x1="-617.9" y1="352" x2="420" y2="116" stroke="#6b4a33" stroke-opacity="0.1" stroke-width="0.6"/><line x1="-553.9" y1="352" x2="420" y2="116" stroke="#000" stroke-opacity="0.25" stroke-width="0.6"/><line x1="-493.5" y1="352" x2="420" y2="116" stroke="#6b4a33" stroke-opacity="0.1" stroke-width="1.7"/><line x1="-416.6" y1="352" x2="420" y2="116" stroke="#000" stroke-opacity="0.2" stroke-width="1.7"/><line x1="-386" y1="352" x2="420" y2="116" stroke="#000" stroke-opacity="0.31" stroke-width="0.8"/><line x1="-319.9" y1="352" x2="420" y2="116" stroke="#6b4a33" stroke-opacity="0.1" stroke-width="2"/><line x1="-247.9" y1="352" x2="420" y2="116" stroke="#000" stroke-opacity="0.22" stroke-width="1.4"/><line x1="-193.9" y1="352" x2="420" y2="116" stroke="#000" stroke-opacity="0.18" stroke-width="1.5"/><line x1="-138.7" y1="352" x2="420" y2="116" stroke="#000" stroke-opacity="0.29" stroke-width="0.7"/><line x1="-92.6" y1="352" x2="420" y2="116" stroke="#000" stroke-opacity="0.21" stroke-width="1.4"/><line x1="-26.6" y1="352" x2="420" y2="116" stroke="#6b4a33" stroke-opacity="0.06" stroke-width="0.8"/><line x1="24.9" y1="352" x2="420" y2="116" stroke="#000" stroke-opacity="0.18" stroke-width="1"/><line x1="104.3" y1="352" x2="420" y2="116" stroke="#000" stroke-opacity="0.16" stroke-width="1.4"/><line x1="146.9" y1="352" x2="420" y2="116" stroke="#000" stroke-opacity="0.2" stroke-width="0.7"/><line x1="201.7" y1="352" x2="420" y2="116" stroke="#000" stroke-opacity="0.34" stroke-width="0.5"/><line x1="266" y1="352" x2="420" y2="116" stroke="#000" stroke-opacity="0.3" stroke-width="1"/><line x1="326.6" y1="352" x2="420" y2="116" stroke="#6b4a33" stroke-opacity="0.08" stroke-width="1.6"/><line x1="401" y1="352" x2="420" y2="116" stroke="#000" stroke-opacity="0.26" stroke-width="1.1"/><line x1="439.2" y1="352" x2="420" y2="116" stroke="#000" stroke-opacity="0.32" stroke-width="1.3"/><line x1="521.8" y1="352" x2="420" y2="116" stroke="#000" stroke-opacity="0.32" stroke-width="0.9"/><line x1="569.9" y1="352" x2="420" y2="116" stroke="#000" stroke-opacity="0.14" stroke-width="1.6"/><line x1="620.2" y1="352" x2="420" y2="116" stroke="#000" stroke-opacity="0.24" stroke-width="1.6"/><line x1="683.4" y1="352" x2="420" y2="116" stroke="#000" stroke-opacity="0.32" stroke-width="1.5"/><line x1="744.2" y1="352" x2="420" y2="116" stroke="#000" stroke-opacity="0.29" stroke-width="1.6"/><line x1="808.4" y1="352" x2="420" y2="116" stroke="#000" stroke-opacity="0.22" stroke-width="1.1"/><line x1="847.1" y1="352" x2="420" y2="116" stroke="#000" stroke-opacity="0.13" stroke-width="0.6"/><line x1="921.1" y1="352" x2="420" y2="116" stroke="#6b4a33" stroke-opacity="0.08" stroke-width="1.1"/><line x1="990.1" y1="352" x2="420" y2="116" stroke="#000" stroke-opacity="0.32" stroke-width="1.7"/><line x1="1033" y1="352" x2="420" y2="116" stroke="#000" stroke-opacity="0.26" stroke-width="1.3"/><line x1="1090.9" y1="352" x2="420" y2="116" stroke="#000" stroke-opacity="0.19" stroke-width="1.3"/><line x1="1153.4" y1="352" x2="420" y2="116" stroke="#000" stroke-opacity="0.26" stroke-width="1.5"/><line x1="1204.9" y1="352" x2="420" y2="116" stroke="#000" stroke-opacity="0.23" stroke-width="1.5"/><line x1="1275.9" y1="352" x2="420" y2="116" stroke="#6b4a33" stroke-opacity="0.1" stroke-width="1.7"/><line x1="1321.9" y1="352" x2="420" y2="116" stroke="#000" stroke-opacity="0.28" stroke-width="1.5"/><line x1="1389.6" y1="352" x2="420" y2="116" stroke="#000" stroke-opacity="0.27" stroke-width="0.6"/><line x1="1457.1" y1="352" x2="420" y2="116" stroke="#000" stroke-opacity="0.28" stroke-width="2"/><line x1="1514.6" y1="352" x2="420" y2="116" stroke="#000" stroke-opacity="0.34" stroke-width="1.9"/><line x1="1555.8" y1="352" x2="420" y2="116" stroke="#000" stroke-opacity="0.18" stroke-width="2.1"/><line x1="1611.7" y1="352" x2="420" y2="116" stroke="#000" stroke-opacity="0.15" stroke-width="1.5"/><line x1="1693.1" y1="352" x2="420" y2="116" stroke="#000" stroke-opacity="0.14" stroke-width="1.8"/><line x1="1726.7" y1="352" x2="420" y2="116" stroke="#000" stroke-opacity="0.34" stroke-width="1.4"/></g>
<line x1="0" y1="176.5" x2="840" y2="176.5" stroke="#3b2b20" stroke-opacity=".7"/>
<ellipse cx="380" cy="292" rx="330" ry="78" fill="url(#tt-pool)"/>
<g mask="url(#tt-refmask)"><g transform="translate(0 596) scale(1 -1)" opacity=".26" filter="url(#tt-b2)"><use href="#tt-top"/></g></g>
<g transform="matrix(1 0 -0.7564 -0.1708 420 298)" opacity=".62" filter="url(#tt-sh)"><g><animateTransform attributeName="transform" type="translate" values="0 0;0.2 0.1;0.5 0.2;0.7 0.2;0.9 0.3;1.1 0.3;1.3 0.4;1.5 0.4;1.7 0.4;1.9 0.4;2 0.3;2.1 0.3;2.2 0.2;2.2 0.2;2.3 0.1;2.3 0;2.3 -0.1;2.2 -0.2;2.2 -0.2;2.1 -0.3;2 -0.3;1.9 -0.4;1.7 -0.4;1.5 -0.4;1.3 -0.4;1.1 -0.3;0.9 -0.3;0.7 -0.2;0.5 -0.2;0.2 -0.1;0 0;-0.2 0.1;-0.5 0.2;-0.7 0.2;-0.9 0.3;-1.1 0.3;-1.3 0.4;-1.5 0.4;-1.7 0.4;-1.9 0.4;-2 0.3;-2.1 0.3;-2.2 0.2;-2.2 0.2;-2.3 0.1;-2.3 0;-2.3 -0.1;-2.2 -0.2;-2.2 -0.2;-2.1 -0.3;-2 -0.3;-1.9 -0.4;-1.7 -0.4;-1.5 -0.4;-1.3 -0.4;-1.1 -0.3;-0.9 -0.3;-0.7 -0.2;-0.5 -0.2;-0.2 -0.1;0 0" dur="20.11s" repeatCount="indefinite"/><g><animateTransform attributeName="transform" type="rotate" values="2.96;2.84;2.54;2.19;1.93;1.86;1.94;2.06;2.08;1.89;1.48;0.95;0.46;0.12;-0.01;0;0.01;-0.12;-0.46;-0.95;-1.48;-1.89;-2.08;-2.06;-1.94;-1.86;-1.93;-2.19;-2.54;-2.84;-2.96;-2.84;-2.54;-2.19;-1.93;-1.86;-1.94;-2.06;-2.08;-1.89;-1.48;-0.95;-0.46;-0.12;0.01;0;-0.01;0.12;0.46;0.95;1.48;1.89;2.08;2.06;1.94;1.86;1.93;2.19;2.54;2.84;2.96" dur="6.704s" repeatCount="indefinite"/><path d="M 0 0 C 6 -6 18 -26 30 -44 C 40 -58 48 -70 50 -79 C 51 -86 47 -95 38 -102 C 29 -108 15 -111 6.5 -112 C 5.4 -114 5 -116 5 -119 L 5 -149 C 5 -151 7.6 -152 7.6 -156 C 7.6 -161 4 -163 0 -163 C -4 -163, -7.6 -161, -7.6 -156 C -7.6 -152, -5 -151, -5 -149 L -5 -119 C -5 -116, -5.4 -114, -6.5 -112 C -15 -111, -29 -108, -38 -102 C -47 -95, -51 -86, -50 -79 C -48 -70, -40 -58, -30 -44 C -18 -26, -6 -6, 0 0 Z" fill="#000"/></g></g></g>
<ellipse cx="420" cy="298.5" rx="7" ry="1.8" fill="#000" opacity=".8" filter="url(#tt-soft)"/>
<g id="tt-top" transform="translate(420 298) scale(1.22)"><g><animateTransform attributeName="transform" type="translate" values="0 0;0.2 0.1;0.5 0.2;0.7 0.2;0.9 0.3;1.1 0.3;1.3 0.4;1.5 0.4;1.7 0.4;1.9 0.4;2 0.3;2.1 0.3;2.2 0.2;2.2 0.2;2.3 0.1;2.3 0;2.3 -0.1;2.2 -0.2;2.2 -0.2;2.1 -0.3;2 -0.3;1.9 -0.4;1.7 -0.4;1.5 -0.4;1.3 -0.4;1.1 -0.3;0.9 -0.3;0.7 -0.2;0.5 -0.2;0.2 -0.1;0 0;-0.2 0.1;-0.5 0.2;-0.7 0.2;-0.9 0.3;-1.1 0.3;-1.3 0.4;-1.5 0.4;-1.7 0.4;-1.9 0.4;-2 0.3;-2.1 0.3;-2.2 0.2;-2.2 0.2;-2.3 0.1;-2.3 0;-2.3 -0.1;-2.2 -0.2;-2.2 -0.2;-2.1 -0.3;-2 -0.3;-1.9 -0.4;-1.7 -0.4;-1.5 -0.4;-1.3 -0.4;-1.1 -0.3;-0.9 -0.3;-0.7 -0.2;-0.5 -0.2;-0.2 -0.1;0 0" dur="20.11s" repeatCount="indefinite"/><g><animateTransform attributeName="transform" type="rotate" values="2.96;2.84;2.54;2.19;1.93;1.86;1.94;2.06;2.08;1.89;1.48;0.95;0.46;0.12;-0.01;0;0.01;-0.12;-0.46;-0.95;-1.48;-1.89;-2.08;-2.06;-1.94;-1.86;-1.93;-2.19;-2.54;-2.84;-2.96;-2.84;-2.54;-2.19;-1.93;-1.86;-1.94;-2.06;-2.08;-1.89;-1.48;-0.95;-0.46;-0.12;0.01;0;-0.01;0.12;0.46;0.95;1.48;1.89;2.08;2.06;1.94;1.86;1.93;2.19;2.54;2.84;2.96" dur="6.704s" repeatCount="indefinite"/>
    <g clip-path="url(#tt-clip)">
      <path d="M 0 0 C 6 -6 18 -26 30 -44 C 40 -58 48 -70 50 -79 C 51 -86 47 -95 38 -102 C 29 -108 15 -111 6.5 -112 C 5.4 -114 5 -116 5 -119 L 5 -149 C 5 -151 7.6 -152 7.6 -156 C 7.6 -161 4 -163 0 -163 C -4 -163, -7.6 -161, -7.6 -156 C -7.6 -152, -5 -151, -5 -149 L -5 -119 C -5 -116, -5.4 -114, -6.5 -112 C -15 -111, -29 -108, -38 -102 C -47 -95, -51 -86, -50 -79 C -48 -70, -40 -58, -30 -44 C -18 -26, -6 -6, 0 0 Z" fill="url(#tt-steel)"/>
      <!-- The stem is a narrower cylinder, so it carries the same reflections at its own scale. -->
      <rect x="-8" y="-164" width="16" height="52" fill="url(#tt-stem)"/>
      <path d="M 0 0 C 6 -6 18 -26 30 -44 C 40 -58 48 -70 50 -79 C 51 -86 47 -95 38 -102 C 29 -108 15 -111 6.5 -112 C 5.4 -114 5 -116 5 -119 L 5 -149 C 5 -151 7.6 -152 7.6 -156 C 7.6 -161 4 -163 0 -163 C -4 -163, -7.6 -161, -7.6 -156 C -7.6 -152, -5 -151, -5 -149 L -5 -119 C -5 -116, -5.4 -114, -6.5 -112 C -15 -111, -29 -108, -38 -102 C -47 -95, -51 -86, -50 -79 C -48 -70, -40 -58, -30 -44 C -18 -26, -6 -6, 0 0 Z" fill="url(#tt-shade)"/>
      <path d="M 0 0 C 6 -6 18 -26 30 -44 C 40 -58 48 -70 50 -79 C 51 -86 47 -95 38 -102 C 29 -108 15 -111 6.5 -112 C 5.4 -114 5 -116 5 -119 L 5 -149 C 5 -151 7.6 -152 7.6 -156 C 7.6 -161 4 -163 0 -163 C -4 -163, -7.6 -161, -7.6 -156 C -7.6 -152, -5 -151, -5 -149 L -5 -119 C -5 -116, -5.4 -114, -6.5 -112 C -15 -111, -29 -108, -38 -102 C -47 -95, -51 -86, -50 -79 C -48 -70, -40 -58, -30 -44 C -18 -26, -6 -6, 0 0 Z" fill="url(#tt-warm)"/>
      <!-- The key light's hotspot on the crown. -->
      <ellipse cx="-17" cy="-93" rx="12" ry="9" fill="url(#tt-hot)"/>
      <ellipse cx="0" cy="-110.5" rx="18.7" ry="1.25" fill="none" stroke="#fff" stroke-opacity="0.036" stroke-width=".4"/>
      <ellipse cx="0" cy="-108.8" rx="24.8" ry="1.47" fill="none" stroke="#000" stroke-opacity="0.054" stroke-width=".4"/>
      <ellipse cx="0" cy="-107.1" rx="29.5" ry="1.63" fill="none" stroke="#000" stroke-opacity="0.063" stroke-width=".4"/>
      <ellipse cx="0" cy="-105.4" rx="33.3" ry="1.77" fill="none" stroke="#fff" stroke-opacity="0.059" stroke-width=".4"/>
      <ellipse cx="0" cy="-103.7" rx="36.3" ry="1.87" fill="none" stroke="#000" stroke-opacity="0.070" stroke-width=".4"/>
      <ellipse cx="0" cy="-102.0" rx="38.8" ry="1.96" fill="none" stroke="#000" stroke-opacity="0.066" stroke-width=".4"/>
      <ellipse cx="0" cy="-100.3" rx="40.8" ry="2.03" fill="none" stroke="#fff" stroke-opacity="0.050" stroke-width=".4"/>
      <ellipse cx="0" cy="-98.6" rx="42.6" ry="2.09" fill="none" stroke="#000" stroke-opacity="0.047" stroke-width=".4"/>
      <ellipse cx="0" cy="-96.9" rx="44.0" ry="2.14" fill="none" stroke="#000" stroke-opacity="0.049" stroke-width=".4"/>
      <ellipse cx="0" cy="-95.2" rx="45.3" ry="2.18" fill="none" stroke="#fff" stroke-opacity="0.051" stroke-width=".4"/>
      <ellipse cx="0" cy="-93.5" rx="46.4" ry="2.22" fill="none" stroke="#000" stroke-opacity="0.067" stroke-width=".4"/>
      <ellipse cx="0" cy="-91.8" rx="47.4" ry="2.26" fill="none" stroke="#000" stroke-opacity="0.070" stroke-width=".4"/>
      <ellipse cx="0" cy="-90.1" rx="48.3" ry="2.29" fill="none" stroke="#fff" stroke-opacity="0.058" stroke-width=".4"/>
      <ellipse cx="0" cy="-88.4" rx="49.0" ry="2.31" fill="none" stroke="#000" stroke-opacity="0.062" stroke-width=".4"/>
      <ellipse cx="0" cy="-86.7" rx="49.5" ry="2.33" fill="none" stroke="#000" stroke-opacity="0.052" stroke-width=".4"/>
      <ellipse cx="0" cy="-85.0" rx="49.9" ry="2.34" fill="none" stroke="#fff" stroke-opacity="0.038" stroke-width=".4"/>
      <ellipse cx="0" cy="-83.3" rx="50.1" ry="2.35" fill="none" stroke="#000" stroke-opacity="0.055" stroke-width=".4"/>
      <ellipse cx="0" cy="-81.6" rx="50.1" ry="2.36" fill="none" stroke="#000" stroke-opacity="0.064" stroke-width=".4"/>
      <ellipse cx="0" cy="-79.9" rx="50.1" ry="2.35" fill="none" stroke="#fff" stroke-opacity="0.059" stroke-width=".4"/>
      <ellipse cx="0" cy="-78.2" rx="49.9" ry="2.35" fill="none" stroke="#000" stroke-opacity="0.069" stroke-width=".4"/>
      <ellipse cx="0" cy="-76.5" rx="49.5" ry="2.33" fill="none" stroke="#000" stroke-opacity="0.065" stroke-width=".4"/>
      <ellipse cx="0" cy="-74.8" rx="48.9" ry="2.31" fill="none" stroke="#fff" stroke-opacity="0.048" stroke-width=".4"/>
      <ellipse cx="0" cy="-73.1" rx="48.4" ry="2.29" fill="none" stroke="#000" stroke-opacity="0.045" stroke-width=".4"/>
      <ellipse cx="0" cy="-71.4" rx="47.6" ry="2.27" fill="none" stroke="#000" stroke-opacity="0.051" stroke-width=".4"/>
      <ellipse cx="0" cy="-69.7" rx="46.8" ry="2.24" fill="none" stroke="#fff" stroke-opacity="0.052" stroke-width=".4"/>
      <ellipse cx="0" cy="-68.0" rx="45.9" ry="2.21" fill="none" stroke="#000" stroke-opacity="0.068" stroke-width=".4"/>
      <ellipse cx="0" cy="-66.3" rx="45.0" ry="2.17" fill="none" stroke="#000" stroke-opacity="0.070" stroke-width=".4"/>
      <ellipse cx="0" cy="-64.6" rx="44.0" ry="2.14" fill="none" stroke="#fff" stroke-opacity="0.058" stroke-width=".4"/>
      <ellipse cx="0" cy="-62.9" rx="43.0" ry="2.11" fill="none" stroke="#000" stroke-opacity="0.060" stroke-width=".4"/>
      <ellipse cx="0" cy="-61.2" rx="42.1" ry="2.07" fill="none" stroke="#000" stroke-opacity="0.050" stroke-width=".4"/>
      <ellipse cx="0" cy="-59.5" rx="41.0" ry="2.04" fill="none" stroke="#fff" stroke-opacity="0.039" stroke-width=".4"/>
      <ellipse cx="0" cy="-57.8" rx="39.8" ry="1.99" fill="none" stroke="#000" stroke-opacity="0.057" stroke-width=".4"/>
      <ellipse cx="0" cy="-56.1" rx="38.9" ry="1.96" fill="none" stroke="#000" stroke-opacity="0.065" stroke-width=".4"/>
      <ellipse cx="0" cy="-54.4" rx="37.6" ry="1.92" fill="none" stroke="#fff" stroke-opacity="0.060" stroke-width=".4"/>
      <ellipse cx="0" cy="-52.7" rx="36.5" ry="1.88" fill="none" stroke="#000" stroke-opacity="0.069" stroke-width=".4"/>
      <ellipse cx="0" cy="-51.0" rx="35.5" ry="1.84" fill="none" stroke="#000" stroke-opacity="0.064" stroke-width=".4"/>
      <ellipse cx="0" cy="-49.3" rx="34.1" ry="1.79" fill="none" stroke="#fff" stroke-opacity="0.047" stroke-width=".4"/>
      <ellipse cx="0" cy="-47.6" rx="32.9" ry="1.75" fill="none" stroke="#000" stroke-opacity="0.043" stroke-width=".4"/>
      <ellipse cx="0" cy="-45.9" rx="31.8" ry="1.71" fill="none" stroke="#000" stroke-opacity="0.052" stroke-width=".4"/>
      <ellipse cx="0" cy="-44.2" rx="30.6" ry="1.67" fill="none" stroke="#fff" stroke-opacity="0.053" stroke-width=".4"/>
      <ellipse cx="0" cy="-42.5" rx="29.3" ry="1.62" fill="none" stroke="#000" stroke-opacity="0.068" stroke-width=".4"/>
      <ellipse cx="0" cy="-40.8" rx="28.2" ry="1.59" fill="none" stroke="#000" stroke-opacity="0.070" stroke-width=".4"/>
      <ellipse cx="0" cy="-39.1" rx="27.1" ry="1.55" fill="none" stroke="#fff" stroke-opacity="0.057" stroke-width=".4"/>
      <ellipse cx="0" cy="-37.4" rx="26.0" ry="1.51" fill="none" stroke="#000" stroke-opacity="0.059" stroke-width=".4"/>
      <ellipse cx="0" cy="-35.7" rx="25.0" ry="1.47" fill="none" stroke="#000" stroke-opacity="0.048" stroke-width=".4"/>
      <ellipse cx="0" cy="-34.0" rx="23.9" ry="1.44" fill="none" stroke="#fff" stroke-opacity="0.041" stroke-width=".4"/>
      <ellipse cx="0" cy="-32.3" rx="22.8" ry="1.40" fill="none" stroke="#000" stroke-opacity="0.058" stroke-width=".4"/>
      <ellipse cx="0" cy="-30.6" rx="21.4" ry="1.35" fill="none" stroke="#000" stroke-opacity="0.066" stroke-width=".4"/>
      <ellipse cx="0" cy="-28.9" rx="20.4" ry="1.31" fill="none" stroke="#fff" stroke-opacity="0.060" stroke-width=".4"/>
      <ellipse cx="0" cy="-27.2" rx="19.4" ry="1.28" fill="none" stroke="#000" stroke-opacity="0.069" stroke-width=".4"/>
      <ellipse cx="0" cy="-25.5" rx="18.3" ry="1.24" fill="none" stroke="#000" stroke-opacity="0.062" stroke-width=".4"/>
      <ellipse cx="0" cy="-23.8" rx="17.3" ry="1.21" fill="none" stroke="#fff" stroke-opacity="0.045" stroke-width=".4"/>
      <ellipse cx="0" cy="-22.1" rx="16.0" ry="1.16" fill="none" stroke="#000" stroke-opacity="0.043" stroke-width=".4"/>
      <ellipse cx="0" cy="-20.4" rx="15.0" ry="1.12" fill="none" stroke="#000" stroke-opacity="0.054" stroke-width=".4"/>
      <ellipse cx="0" cy="-18.7" rx="14.0" ry="1.09" fill="none" stroke="#fff" stroke-opacity="0.054" stroke-width=".4"/>
      <ellipse cx="0" cy="-17.0" rx="12.8" ry="1.05" fill="none" stroke="#000" stroke-opacity="0.069" stroke-width=".4"/>
      <ellipse cx="0" cy="-15.3" rx="11.8" ry="1.01" fill="none" stroke="#000" stroke-opacity="0.070" stroke-width=".4"/>
      <ellipse cx="0" cy="-13.6" rx="10.6" ry="0.97" fill="none" stroke="#fff" stroke-opacity="0.056" stroke-width=".4"/>
      <ellipse cx="0" cy="-11.9" rx="9.4" ry="0.93" fill="none" stroke="#000" stroke-opacity="0.057" stroke-width=".4"/>
      <ellipse cx="0" cy="-10.2" rx="8.2" ry="0.89" fill="none" stroke="#000" stroke-opacity="0.046" stroke-width=".4"/>
      <ellipse cx="0" cy="-8.5" rx="7.1" ry="0.85" fill="none" stroke="#fff" stroke-opacity="0.042" stroke-width=".4"/>
      <g filter="url(#tt-blur)"><rect class="mark" x="-2.5" y="-96" width="5" height="1.8" rx=".9" fill="#0e0f10" style="animation-delay:-0.000s"/><rect class="mark" x="-2.5" y="-96" width="5" height="1.8" rx=".9" fill="#0e0f10" style="animation-delay:-0.206s"/></g>
    </g>
    <!-- The machined edge at the widest point, and a fine rim light on the crown. -->
    <path d="M -50 -79 Q 0 -75.2 50 -79" fill="none" stroke="#000" stroke-opacity=".35" stroke-width=".7" clip-path="url(#tt-clip)"/>
    <path d="M -49.6 -77.6 Q 0 -73.8 49.6 -77.6" fill="none" stroke="#fff" stroke-opacity=".35" stroke-width=".5" clip-path="url(#tt-clip)"/>
    <path d="M -38 -102 C -29 -108 -15 -111 -6.5 -112" fill="none" stroke="#fff" stroke-opacity=".4" stroke-width=".6"/></g></g></g>
<path d="M 120 0 H 236 L 560 328 H 300 Z" fill="url(#tt-beam)" filter="url(#tt-wide)"/>
<circle r="0.5" fill="#ffe2b8" opacity="0.22"><animate attributeName="cx" values="200.7;209.3;212.6;209.3;203.1;199.9;203.3;212;220.6;200.7" dur="18s" repeatCount="indefinite"/><animate attributeName="cy" values="121.9;119.7;115.4;110.5;107.1;106.3;108.2;111.5;114.2;121.9" dur="18s" repeatCount="indefinite"/></circle><circle r="0.8" fill="#ffe2b8" opacity="0.27"><animate attributeName="cx" values="356.7;359.2;355.3;349.1;346.5;350.7;359.7;367.9;370.3;356.7" dur="21s" repeatCount="indefinite"/><animate attributeName="cy" values="52.5;48.8;47.6;49.2;52.3;55.3;56.2;54.3;50.1;52.5" dur="21s" repeatCount="indefinite"/></circle><circle r="1.4" fill="#ffe2b8" opacity="0.44" filter="url(#tt-b1)"><animate attributeName="cx" values="278;273.6;267.5;265.6;270.5;279.7;287.5;289.1;284.6;278" dur="24s" repeatCount="indefinite"/><animate attributeName="cy" values="46.6;49.6;52.7;54;52.5;48.6;43.6;39.7;38.2;46.6" dur="24s" repeatCount="indefinite"/></circle><circle r="0.9" fill="#ffe2b8" opacity="0.46"><animate attributeName="cx" values="324.6;318.7;317.5;323.1;332.5;339.7;340.6;335.6;329.8;324.6" dur="27s" repeatCount="indefinite"/><animate attributeName="cy" values="66.5;65.5;61.8;56.9;52.7;50.8;51.7;54.6;57.8;66.5" dur="27s" repeatCount="indefinite"/></circle><circle r="0.8" fill="#ffe2b8" opacity="0.44"><animate attributeName="cx" values="496.5;496.1;502.3;511.7;518.4;518.5;513.1;507.6;507.3;496.5" dur="30s" repeatCount="indefinite"/><animate attributeName="cy" values="185;180.6;178.3;178.8;181.5;184.8;186.7;186;182.6;185" dur="30s" repeatCount="indefinite"/></circle><circle r="0.5" fill="#ffe2b8" opacity="0.16"><animate attributeName="cx" values="439.6;446.5;455.9;461.9;461.3;455.6;450.4;450.9;457.8;439.6" dur="18s" repeatCount="indefinite"/><animate attributeName="cy" values="59.4;61.9;65.2;67.4;67.1;64;59.3;54.7;52.1;59.4" dur="18s" repeatCount="indefinite"/></circle><circle r="1.2" fill="#ffe2b8" opacity="0.42"><animate attributeName="cx" values="382.7;392.1;397.4;396;390.1;385.3;386.6;394.1;403.4;382.7" dur="21s" repeatCount="indefinite"/><animate attributeName="cy" values="157.5;157.6;154.9;150.3;145.6;142.6;142.4;144.7;148;157.5" dur="21s" repeatCount="indefinite"/></circle><circle r="1.3" fill="#ffe2b8" opacity="0.32" filter="url(#tt-b1)"><animate attributeName="cx" values="430.9;435.6;433.5;427.4;423.1;425.1;433.1;442.2;446.8;430.9" dur="24s" repeatCount="indefinite"/><animate attributeName="cy" values="230.6;225.7;222.4;221.8;223.8;227.1;229.7;230.1;227.7;230.6" dur="24s" repeatCount="indefinite"/></circle><circle r="1.4" fill="#ffe2b8" opacity="0.2" filter="url(#tt-b1)"><animate attributeName="cx" values="404.6;401.8;395.5;391.8;394.6;403.1;411.9;415.7;412.8;404.6" dur="27s" repeatCount="indefinite"/><animate attributeName="cy" values="191.6;193.3;196.5;199.4;200.2;198.1;193.9;189;185.4;191.6" dur="27s" repeatCount="indefinite"/></circle><circle r="0.6" fill="#ffe2b8" opacity="0.25"><animate attributeName="cx" values="337.3;331;327.9;331.5;340.3;348.8;351.9;348.3;342.1;337.3" dur="30s" repeatCount="indefinite"/><animate attributeName="cy" values="241.7;242.9;241.3;237.3;232.4;228.5;227.1;228.5;231.6;241.7" dur="30s" repeatCount="indefinite"/></circle><circle r="1.6" fill="#ffe2b8" opacity="0.31" filter="url(#tt-b1)"><animate attributeName="cx" values="394.7;392.2;396.5;405.6;413.7;416;411.9;405.7;403.4;394.7" dur="18s" repeatCount="indefinite"/><animate attributeName="cy" values="228;223.1;219;217.2;218.2;221.2;224.3;225.8;224.5;228" dur="18s" repeatCount="indefinite"/></circle><circle r="1.8" fill="#ffe2b8" opacity="0.57" filter="url(#tt-b1)"><animate attributeName="cx" values="149.2;154.2;163.5;171.2;172.7;168.1;162.1;160.4;165.6;149.2" dur="21s" repeatCount="indefinite"/><animate attributeName="cy" values="169.3;169.9;172.7;176;177.8;176.9;173.4;168.5;164.2;169.3" dur="21s" repeatCount="indefinite"/></circle><circle r="0.8" fill="#ffe2b8" opacity="0.3"><animate attributeName="cx" values="483.9;493.3;500.4;501.1;496.1;490.3;489.4;495.2;504.6;483.9" dur="24s" repeatCount="indefinite"/><animate attributeName="cy" values="122.7;124.8;124.3;121.1;116.3;111.8;109.3;109.7;112.3;122.7" dur="24s" repeatCount="indefinite"/></circle><circle r="1" fill="#ffe2b8" opacity="0.36"><animate attributeName="cx" values="329.2;335.7;335.7;330.3;324.8;324.6;331.1;340.5;347;329.2" dur="27s" repeatCount="indefinite"/><animate attributeName="cy" values="175.8;171.2;166.5;163.7;163.6;165.9;169.2;171.6;171.5;175.8" dur="27s" repeatCount="indefinite"/></circle><circle r="1.2" fill="#ffe2b8" opacity="0.28"><animate attributeName="cx" values="324.6;323.8;318.1;313;313.6;320.6;330;335.8;334.9;324.6" dur="30s" repeatCount="indefinite"/><animate attributeName="cy" values="186.2;185.7;187.8;191.1;193.7;193.9;191.4;186.9;182.1;186.2" dur="30s" repeatCount="indefinite"/></circle><circle r="0.9" fill="#ffe2b8" opacity="0.6"><animate attributeName="cx" values="380.1;374.1;369.4;370.8;378.4;387.7;392.8;391.2;385.2;380.1" dur="18s" repeatCount="indefinite"/><animate attributeName="cy" values="168.3;171.1;171.8;169.7;165.3;160.5;157;156.2;158;168.3" dur="18s" repeatCount="indefinite"/></circle><circle r="1.6" fill="#ffe2b8" opacity="0.26" filter="url(#tt-b1)"><animate attributeName="cx" values="158;153.8;156;164;173.1;177.5;175.2;169;165;158" dur="21s" repeatCount="indefinite"/><animate attributeName="cy" values="153.8;149.6;144.7;141;139.7;141.2;144.4;147.3;148.3;153.8" dur="21s" repeatCount="indefinite"/></circle><circle r="1.7" fill="#ffe2b8" opacity="0.46" filter="url(#tt-b1)"><animate attributeName="cx" values="430.6;433.6;442;450.8;454.5;451.5;445.3;441.8;444.8;430.6" dur="24s" repeatCount="indefinite"/><animate attributeName="cy" values="32.3;30.6;31.8;34.8;37.9;39.3;37.8;34;29;32.3" dur="24s" repeatCount="indefinite"/></circle>
</g>
<rect width="840" height="352" fill="url(#tt-vig)"/>

<rect width="840" height="352" fill="url(#tt-gp)" opacity=".1"/>
<rect width="840" height="352" fill="#000" opacity="0"><animate attributeName="opacity" values="0.1;0;0;0;0;0;0;0;0;0" dur="2.3s" repeatCount="indefinite" calcMode="discrete"/></rect>


</svg>
